<svg xmlns="http://www.w3.org/2000/svg" viewBox="0 0 64 64" role="img" aria-label="DLS">
  <defs>
    <linearGradient id="a" x1="8" y1="8" x2="56" y2="56" gradientUnits="userSpaceOnUse">
      <stop stop-color="#54e7ff"/>
      <stop offset=".52" stop-color="#8b7cff"/>
      <stop offset="1" stop-color="#ff6c9c"/>
    </linearGradient>
  </defs>
  <rect width="64" height="64" rx="18" fill="#080b12"/>
  <path d="M13 18h23c9 0 15 6 15 14s-6 14-15 14H13l4-8h18c4 0 7-2 7-6s-3-6-7-6H9l4-8Z" fill="url(#a)"/>
  <path d="M29 18h9l-4 28h-9l4-28Z" fill="#f8fbff"/>
  <path d="M46 18h10l-4 8H42l4-8Zm-7 20h10l-4 8H35l4-8Z" fill="#ff749f"/>
</svg>
